<svg width="124" height="27" viewBox="0 0 124 27" fill="none" xmlns="http://www.w3.org/2000/svg">
<path d="M0.11925 26V0.799999H9.84925C10.0943 0.799999 10.3684 0.811666 10.6718 0.834999C10.9868 0.846666 11.3018 0.881666 11.6168 0.939999C12.9351 1.13833 14.0493 1.59917 14.9593 2.3225C15.8809 3.03417 16.5751 3.9325 17.0418 5.0175C17.5201 6.1025 17.7593 7.30417 17.7593 8.6225C17.7593 9.92917 17.5201 11.125 17.0418 12.21C16.5634 13.295 15.8634 14.1992 14.9418 14.9225C14.0318 15.6342 12.9234 16.0892 11.6168 16.2875C11.3018 16.3342 10.9868 16.3692 10.6718 16.3925C10.3684 16.4158 10.0943 16.4275 9.84925 16.4275H2.69175V26H0.11925ZM2.69175 13.9775H9.77925C9.98925 13.9775 10.2343 13.9658 10.5143 13.9425C10.7943 13.9192 11.0684 13.8783 11.3368 13.82C12.2001 13.6333 12.9059 13.2775 13.4543 12.7525C14.0143 12.2275 14.4284 11.6033 14.6968 10.88C14.9768 10.1567 15.1168 9.40417 15.1168 8.6225C15.1168 7.84083 14.9768 7.08833 14.6968 6.365C14.4284 5.63 14.0143 5 13.4543 4.475C12.9059 3.95 12.2001 3.59417 11.3368 3.4075C11.0684 3.34917 10.7943 3.31417 10.5143 3.3025C10.2343 3.27917 9.98925 3.2675 9.77925 3.2675H2.69175V13.9775ZM17.7491 26L26.4291 0.799999H29.8416L38.5216 26H35.8441L27.6016 2.235H28.6166L20.4266 26H17.7491ZM21.6166 19.8925V17.4775H34.6366V19.8925H21.6166ZM45.6258 26L36.9458 0.799999H39.6233L47.3058 23.0775L55.0408 0.799999H57.7183L49.0383 26H45.6258ZM60.3439 26V0.799999H76.0939V3.2675H62.9164V11.9825H73.9939V14.45H62.9164V23.5325H76.0939V26H60.3439ZM80.3048 26V0.799999H90.0348C90.2798 0.799999 90.554 0.811666 90.8573 0.834999C91.1723 0.846666 91.4873 0.881666 91.8023 0.939999C93.1206 1.13833 94.2348 1.59917 95.1448 2.3225C96.0665 3.03417 96.7606 3.9325 97.2273 5.0175C97.7056 6.1025 97.9448 7.30417 97.9448 8.6225C97.9448 9.92917 97.7056 11.125 97.2273 12.21C96.749 13.295 96.049 14.1992 95.1273 14.9225C94.2173 15.6342 93.109 16.0892 91.8023 16.2875C91.4873 16.3342 91.1723 16.3692 90.8573 16.3925C90.554 16.4158 90.2798 16.4275 90.0348 16.4275H82.8773V26H80.3048ZM82.8773 13.9775H89.9648C90.1748 13.9775 90.4198 13.9658 90.6998 13.9425C90.9798 13.9192 91.254 13.8783 91.5223 13.82C92.3856 13.6333 93.0915 13.2775 93.6398 12.7525C94.1998 12.2275 94.614 11.6033 94.8823 10.88C95.1623 10.1567 95.3023 9.40417 95.3023 8.6225C95.3023 7.84083 95.1623 7.08833 94.8823 6.365C94.614 5.63 94.1998 5 93.6398 4.475C93.0915 3.95 92.3856 3.59417 91.5223 3.4075C91.254 3.34917 90.9798 3.31417 90.6998 3.3025C90.4198 3.27917 90.1748 3.2675 89.9648 3.2675H82.8773V13.9775ZM111.63 26.525C109.122 26.525 107.005 25.9708 105.278 24.8625C103.551 23.7425 102.245 22.1967 101.358 20.225C100.471 18.2533 100.028 15.9783 100.028 13.4C100.028 10.8217 100.471 8.54667 101.358 6.575C102.245 4.60333 103.551 3.06333 105.278 1.955C107.005 0.834999 109.122 0.274999 111.63 0.274999C114.15 0.274999 116.268 0.834999 117.983 1.955C119.71 3.06333 121.016 4.60333 121.903 6.575C122.801 8.54667 123.25 10.8217 123.25 13.4C123.25 15.9783 122.801 18.2533 121.903 20.225C121.016 22.1967 119.71 23.7425 117.983 24.8625C116.268 25.9708 114.15 26.525 111.63 26.525ZM111.63 24.0575C113.602 24.0575 115.247 23.6083 116.565 22.71C117.884 21.8117 118.87 20.5633 119.523 18.965C120.188 17.355 120.52 15.5 120.52 13.4C120.52 11.3 120.188 9.45083 119.523 7.8525C118.87 6.25417 117.884 5.00583 116.565 4.1075C115.247 3.20917 113.602 2.75417 111.63 2.7425C109.659 2.7425 108.02 3.19166 106.713 4.09C105.406 4.98833 104.42 6.2425 103.755 7.8525C103.102 9.45083 102.77 11.3 102.758 13.4C102.746 15.5 103.067 17.3492 103.72 18.9475C104.385 20.5342 105.377 21.7825 106.695 22.6925C108.014 23.5908 109.659 24.0458 111.63 24.0575Z" fill="white"/>
</svg>
