<svg width="49" height="43" viewBox="0 0 49 43" fill="none" xmlns="http://www.w3.org/2000/svg">
<path opacity="0.4" d="M48.3078 2L47.1078 10.55C44.7078 10.35 42.7578 10.75 41.2578 11.75C39.7578 12.7 38.7078 14.1 38.1078 15.95C37.5578 17.75 37.4578 19.85 37.8078 22.25H48.3078V42.65H27.9078V22.25C27.9078 15.05 29.5828 9.6 32.9328 5.9C36.2828 2.15 41.4078 0.849996 48.3078 2ZM21.1578 2L19.9578 10.55C17.5578 10.35 15.6078 10.75 14.1078 11.75C12.6078 12.7 11.5578 14.1 10.9578 15.95C10.4078 17.75 10.3078 19.85 10.6578 22.25H21.1578V42.65H0.757813V22.25C0.757813 15.05 2.43281 9.6 5.78281 5.9C9.13281 2.15 14.2578 0.849996 21.1578 2Z" fill="white"/>
</svg>
